<svg width="424" height="67" viewBox="0 0 424 67" fill="none" xmlns="http://www.w3.org/2000/svg">
<path d="M23.2458 11.64C24.2698 12.088 24.7818 12.28 25.2298 13.112C26.3178 15.032 28.1738 16.568 28.8778 18.616C29.1338 19.32 29.4538 19.896 29.8378 20.536C30.6058 22.2 31.9498 22.712 33.5498 22.584C34.6378 22.584 35.7898 22.392 36.7498 22.328C37.8378 22.264 38.7978 21.944 38.9898 20.6C39.2458 19.64 39.5658 18.36 39.3098 17.528C38.5418 15.288 38.2218 12.792 36.4938 10.936C36.1098 10.616 35.9818 10.104 35.7898 9.592C35.3418 8.888 34.9578 7.992 34.1898 7.608C32.0778 5.56 29.1338 3.256 26.1258 3.192C22.7338 3.192 19.2138 3.512 15.8218 3.704C15.2458 3.704 14.7338 4.088 14.3498 4.152C11.5338 4.6 9.42175 6.072 7.50175 7.8C6.15775 8.952 4.10975 9.976 4.49375 12.344C4.49375 12.536 4.17375 12.728 4.10975 12.856C2.70175 15.352 1.86975 17.912 1.42175 20.6C0.78175 24.056 0.58975 27.768 0.33375 31.416C0.0777501 35 0.33375 38.648 1.03775 42.168C2.31775 48.568 4.49375 54.648 10.8298 57.912C10.8298 57.912 10.8938 57.976 10.9578 57.976C12.1738 59.32 13.7738 59.32 15.3738 59.192C17.6778 58.744 19.9178 58.488 22.2858 58.232C25.9978 57.848 29.0058 56.12 31.8857 54.008C33.1018 53.048 34.0618 51.768 35.0218 50.552C37.4538 47.864 37.9018 47.032 39.3738 43.704C41.3578 39.096 35.6618 36.664 33.1658 35.768C32.1418 35.384 31.1818 35.512 29.9018 37.112C28.4938 38.904 25.2938 45.944 23.9498 47.864C22.1578 50.296 20.4938 49.912 19.5338 46.776C18.1258 42.488 16.3338 38.008 17.1658 33.144C17.2938 32.888 17.1018 32.504 17.1018 32.12C17.1658 30.52 17.2938 28.92 17.4858 27.064C17.4858 26.424 17.6138 25.848 17.6778 25.208C18.1258 23.096 18.1898 20.984 18.8298 18.872C19.5338 16.184 20.7498 13.816 23.2458 11.64ZM58.2098 47.864C58.2098 46.456 58.2098 45.368 58.2738 44.216C58.3378 40.888 58.7858 37.496 58.7858 34.232C58.8498 29.688 58.8498 25.208 58.6578 20.664C58.5298 16.888 58.2098 13.112 58.0178 9.272C57.7618 7.544 56.9298 6.392 55.2658 6.264C53.5378 6.136 51.4898 6.2 49.6338 6.264C48.6098 6.264 47.9058 6.712 47.8418 7.992C47.8418 8.952 47.2658 9.912 47.0098 10.872C46.4338 14.008 45.9218 17.016 45.6658 20.024C45.5378 21.624 45.0258 23.224 45.0258 24.632C44.8978 28.856 44.4498 32.952 44.9618 37.112C45.0258 37.944 45.5378 38.712 45.4738 39.672C45.2818 43.064 46.2418 46.136 46.8818 49.4C47.2658 51.064 47.0098 52.216 45.9218 53.368C44.3218 55.16 44.4498 56.248 46.3698 57.528C49.8898 59.704 53.7298 60.664 57.5698 59C61.4738 57.208 65.6338 56.184 69.6018 54.904C70.4978 54.584 71.3298 54.072 72.1618 53.752C72.8658 53.176 73.3138 52.408 72.7378 51.576C72.4178 51.064 72.0978 50.424 71.6498 49.976C69.7938 48.312 67.6178 47.224 64.9938 47.288C63.3938 47.352 61.9218 47.672 60.3218 47.864C59.6818 47.864 59.0417 47.864 58.2098 47.864ZM96.6663 50.552C96.9863 52.536 97.1143 54.52 97.4983 56.44C97.6263 57.528 97.6263 58.552 97.9463 59.64C98.6503 61.56 99.7383 62.328 101.786 62.072C103.962 61.816 106.138 61.24 108.314 60.344C109.786 59.832 110.554 58.552 111.002 57.144C111.45 55.48 111.578 53.752 112.09 52.152C112.794 49.336 112.794 46.456 112.922 43.576C112.986 41.08 112.602 38.584 112.282 36.088C112.09 33.912 111.77 31.8 111.258 29.688C111.002 28.024 110.554 26.36 109.786 25.016C108.442 22.712 107.93 20.024 106.586 17.656C105.37 15.48 104.218 13.112 103.066 10.808C101.978 8.312 99.8663 7.224 97.1143 7.864C96.7303 8.056 96.2823 7.992 95.7703 7.992C94.6183 8.056 93.3383 8.056 92.1863 8.248C90.5223 8.44 88.9223 8.888 88.3463 10.616C87.0663 14.328 85.5943 17.784 84.9543 21.56C84.3142 25.784 82.3943 29.624 81.5623 33.848C81.0503 36.088 79.8983 38.392 79.5783 40.696C79.3223 43.576 77.2103 46.008 77.3383 48.952C75.9943 50.68 76.6343 53.048 75.8663 55.032C75.5463 55.352 75.6103 56.184 75.8663 56.76C75.9943 57.272 76.3783 57.72 76.8903 58.104C79.5143 59.448 83.6743 58.232 84.5703 55.352C85.4023 52.92 86.8743 52.152 89.1143 51.768C91.6103 51.448 93.9783 50.872 96.6663 50.552ZM88.4103 45.816C90.7783 40.312 93.1463 34.936 95.4503 29.56C95.6423 29.688 95.7703 29.816 95.7703 30.136C96.0263 32.76 96.3463 35.512 96.4743 38.328C96.6663 39.992 96.4743 41.72 96.6663 43.448C96.7303 44.088 96.4743 44.536 95.7703 44.728C93.6583 45.176 91.4183 45.624 89.2423 46.136C88.9223 46.2 88.6663 46.008 88.4103 45.816ZM123.216 8.056C122.448 8.248 121.488 8.312 120.528 8.696C119.44 9.144 118.608 9.912 118.608 11.064C118.544 13.816 118.544 16.696 118.544 19.384C118.544 23.352 118.544 27.32 118.48 31.224C118.48 34.168 118.416 37.112 118.352 39.928C118.16 42.872 118.288 45.688 118.352 48.632C118.416 50.872 117.712 53.304 118.736 55.48C119.632 57.272 120.528 58.744 122.448 59.192C125.456 59.96 128.4 59.64 131.152 58.296C133.584 57.272 135.12 53.88 134.992 51.32C134.8 48.184 134.352 44.856 134.416 41.656C134.416 38.648 134.16 35.832 133.776 32.888C133.648 30.52 133.328 28.408 133.072 26.296C132.88 24.824 132.816 23.48 132.688 22.2C132.56 21.24 132.176 20.216 132.176 19.256C131.984 16.248 131.472 13.368 130.448 10.552C130.256 9.464 129.424 8.952 128.4 8.76C126.8 8.568 125.2 8.312 123.216 8.056ZM152.58 55.608C151.172 44.92 149.572 34.104 152.26 23.352C152.644 23.736 152.964 24.312 153.028 24.824C154.116 29.24 155.076 33.656 156.42 38.072C157.252 40.376 157.956 41.272 160.836 41.144C163.012 41.144 165.124 40.696 167.172 40.312C168.324 40.056 169.156 39.224 169.348 37.88C169.668 35.448 170.052 33.208 171.012 30.84C172.612 26.872 174.02 22.84 176.644 19.384C177.156 18.872 177.348 18.04 177.86 17.4C186.308 7.736 184.004 16.824 183.044 23.864C182.02 30.968 179.46 37.752 178.5 44.856C177.988 47.736 177.604 50.68 177.22 53.624C177.028 55.8 177.988 57.4 180.1 57.592C181.38 57.72 184.836 57.656 186.18 57.464C187.204 57.208 188.036 56.504 188.356 55.352C189.188 53.176 190.212 50.872 190.852 48.696C191.172 47.8 191.364 46.904 191.684 46.072C192.452 43.32 193.412 40.76 194.052 38.136C194.82 35 195.076 31.864 195.844 28.856C197.316 22.776 198.212 16.632 197.956 10.296C197.892 8.76 197.7 7.096 197.188 5.624C196.356 3.704 195.076 1.912 192.58 1.976C192.004 1.976 189.7 1.784 189.188 1.656C184.708 0.887997 180.612 2.104 177.284 4.984C175.748 6.392 174.212 7.672 172.676 9.144C172.292 9.336 172.1 9.72 171.972 9.912C170.436 11.768 169.028 13.688 167.556 15.544C166.98 16.248 165.956 16.824 165.892 17.656C165.7 18.872 164.996 19.256 164.036 19.96C163.396 18.488 162.948 17.208 162.052 16.12C160.132 13.368 157.444 11.704 154.116 11.384C151.876 11.064 149.7 11.384 147.716 11.448C145.86 11.64 144.58 12.728 143.556 14.008C141.636 16.888 140.932 20.216 139.844 23.352C139.14 25.656 138.948 28.152 138.884 30.52C138.884 34.104 138.884 37.56 139.268 40.952C139.652 44.472 140.356 47.864 141.06 51.32C141.444 53.048 142.084 54.712 142.596 56.504C142.852 57.912 144.132 58.296 145.348 58.168C147.78 57.912 150.404 58.04 152.58 55.608ZM238.445 9.848C238.765 8.312 239.149 7.096 239.469 5.88C240.237 4.088 239.789 3.32 237.229 2.616C236.205 2.296 235.053 2.488 234.029 2.296C232.173 2.296 231.213 3.064 231.021 4.472C230.573 6.904 230.189 9.528 229.997 12.088C229.933 13.432 229.677 14.456 228.397 15.416C226.349 16.952 224.749 19.064 224.045 21.368C223.213 24.504 223.469 27.384 226.989 29.752C228.397 30.712 229.933 31.672 231.277 32.504C232.941 33.464 234.733 34.36 236.205 35.512C245.421 42.808 230.509 46.2 226.285 43.576C224.621 42.552 223.277 44.024 223.917 45.432C224.429 46.968 225.517 48.376 227.309 49.208C228.781 49.912 230.381 50.616 231.725 51.192C231.661 52.152 231.725 52.856 231.853 53.624C231.981 55.16 232.109 56.888 232.429 58.616C232.429 58.936 232.877 59.256 233.325 59.448C234.221 59.768 234.925 59.96 235.757 60.216C238.061 60.792 239.085 60.408 239.469 58.616C239.917 56.696 240.237 54.84 240.813 52.92C243.757 52.728 246.509 52.152 248.237 50.04C250.093 47.992 251.053 45.368 250.541 42.808C249.645 39.8 247.277 37.432 244.077 35.64C241.261 33.976 238.445 32.376 235.629 30.712C233.965 29.752 233.645 28.792 234.285 27.384C234.669 26.744 235.309 26.04 235.885 25.464C237.357 24.12 238.957 22.904 240.493 21.496C242.669 19.448 245.229 17.72 248.429 16.696C249.069 16.44 249.581 16.184 249.901 15.672C250.285 15.288 250.413 14.648 250.285 14.072C249.837 12.856 243.181 9.592 241.645 9.656C241.517 9.656 241.325 9.848 241.133 9.848C240.365 9.848 239.533 9.848 238.445 9.848ZM232.877 6.904C232.813 7.288 232.813 7.544 232.685 7.864C232.621 7.864 232.493 7.864 232.365 7.8C232.429 7.416 232.557 7.224 232.557 6.84C232.749 6.84 232.813 6.904 232.877 6.904ZM270.554 34.296C270.298 32.376 269.914 30.776 269.914 29.176C269.914 23.608 269.658 18.04 268.762 12.536C268.762 12.344 268.698 12.152 268.762 12.088C269.338 9.272 268.058 6.52 267.61 3.704C267.354 2.168 266.458 1.656 264.666 1.656C263.514 1.656 262.682 1.848 261.594 1.912C259.738 2.104 258.202 3.128 258.138 4.856C257.434 9.4 257.05 14.008 256.538 18.616C256.41 21.176 256.41 23.608 256.346 26.232C256.282 29.624 256.154 33.208 256.282 36.6C256.09 39.224 256.026 41.72 256.218 44.216C256.538 48.248 257.114 52.152 257.626 56.12C257.946 58.68 258.394 61.176 258.714 63.672C258.842 64.696 259.354 65.656 260.378 65.784C262.17 66.04 263.962 66.424 265.562 66.296C268.762 66.04 268.89 65.72 269.402 62.968C269.402 62.584 269.402 62.2 269.402 61.88C269.658 58.36 269.914 54.968 270.106 51.32C270.234 47.864 270.49 44.408 270.746 40.568C274.458 40.248 278.554 39.928 282.458 39.544C282.714 41.912 283.29 44.024 283.226 46.072C283.226 49.976 283.994 53.624 285.274 57.464C285.914 59.192 287.77 60.344 289.754 60.28C291.29 60.28 292.954 59.96 294.554 59.64C295.898 59.512 296.666 58.872 296.73 57.464C296.73 55.608 297.178 53.624 297.242 51.768C297.434 51.064 297.498 50.168 297.498 49.528C297.306 45.496 296.858 41.528 296.602 37.496C296.538 33.016 296.73 28.536 296.666 24.056C296.602 19.96 296.474 15.8 296.154 11.64C296.026 10.424 295.642 8.952 295.194 7.8C294.938 7.224 294.17 6.52 293.722 6.52C291.226 6.328 288.794 6.328 286.49 6.392C285.402 6.392 284.826 6.904 284.698 7.8C284.378 9.72 283.93 11.384 283.674 13.176C283.418 14.456 283.802 15.928 283.61 17.208C282.906 20.6 282.33 24.056 282.842 27.768C283.034 29.24 282.906 30.84 282.97 32.632C278.554 33.272 274.714 33.848 270.554 34.296ZM321.854 50.552C322.174 52.536 322.302 54.52 322.686 56.44C322.814 57.528 322.814 58.552 323.134 59.64C323.838 61.56 324.926 62.328 326.974 62.072C329.15 61.816 331.326 61.24 333.502 60.344C334.974 59.832 335.742 58.552 336.19 57.144C336.638 55.48 336.766 53.752 337.278 52.152C337.982 49.336 337.982 46.456 338.11 43.576C338.174 41.08 337.79 38.584 337.47 36.088C337.278 33.912 336.958 31.8 336.446 29.688C336.19 28.024 335.742 26.36 334.974 25.016C333.63 22.712 333.118 20.024 331.774 17.656C330.558 15.48 329.406 13.112 328.254 10.808C327.166 8.312 325.054 7.224 322.302 7.864C321.918 8.056 321.47 7.992 320.958 7.992C319.806 8.056 318.526 8.056 317.374 8.248C315.71 8.44 314.11 8.888 313.534 10.616C312.254 14.328 310.782 17.784 310.142 21.56C309.502 25.784 307.582 29.624 306.75 33.848C306.238 36.088 305.086 38.392 304.766 40.696C304.51 43.576 302.398 46.008 302.526 48.952C301.182 50.68 301.822 53.048 301.054 55.032C300.734 55.352 300.798 56.184 301.054 56.76C301.182 57.272 301.566 57.72 302.078 58.104C304.702 59.448 308.862 58.232 309.758 55.352C310.59 52.92 312.062 52.152 314.302 51.768C316.798 51.448 319.166 50.872 321.854 50.552ZM313.598 45.816C315.966 40.312 318.334 34.936 320.638 29.56C320.83 29.688 320.958 29.816 320.958 30.136C321.214 32.76 321.534 35.512 321.662 38.328C321.854 39.992 321.662 41.72 321.854 43.448C321.918 44.088 321.662 44.536 320.958 44.728C318.846 45.176 316.606 45.624 314.43 46.136C314.11 46.2 313.854 46.008 313.598 45.816ZM367.347 4.408C364.531 3.96 362.291 5.048 360.115 6.904C359.859 7.288 359.283 7.416 358.771 7.608C357.875 8.12 356.915 8.568 356.019 9.144C354.995 9.784 354.419 10.552 353.523 11.192C350.771 13.112 348.531 15.672 346.419 18.36C344.691 20.792 343.539 23.352 343.155 26.232C342.643 28.792 343.539 31.288 345.779 32.952C347.891 34.424 350.195 35.576 352.691 36.472C354.867 37.176 357.171 38.136 359.091 39.544C360.051 40.44 360.371 41.208 359.795 42.232C359.027 43.448 358.259 44.728 357.171 45.688C355.379 47.224 353.139 48.312 351.219 49.784C349.491 51.064 348.851 52.344 348.275 54.008C347.379 56.824 348.211 58.168 351.027 58.744C353.267 59.128 355.443 59.64 357.747 59.704C359.539 59.768 361.715 59.576 363.763 59.064C365.235 58.744 366.835 58.04 368.115 57.08C369.843 55.864 371.251 54.328 372.659 52.92C373.107 52.472 373.683 51.96 373.811 51.384C374.579 49.784 375.219 48.056 375.795 46.264C375.859 45.88 375.859 45.304 375.731 44.856C374.771 41.272 372.595 38.584 369.587 36.856C366.835 35.384 363.827 34.424 361.011 33.208C359.475 32.568 357.939 31.992 356.595 31.416C355.251 30.712 354.803 29.56 355.571 28.216C356.531 26.552 357.619 25.016 358.707 23.416C359.859 22.008 360.947 20.792 362.163 19.512C362.867 18.616 363.571 17.656 364.403 16.888C365.235 16.12 366.643 15.544 367.411 14.52C369.523 12.344 372.339 12.024 374.963 11.256C376.499 11 377.459 10.552 377.651 9.272C377.971 8.248 377.331 7.096 375.923 6.648C373.171 5.56 370.611 3.96 367.347 4.408ZM396.366 34.296C396.11 32.376 395.726 30.776 395.726 29.176C395.726 23.608 395.47 18.04 394.574 12.536C394.574 12.344 394.51 12.152 394.574 12.088C395.15 9.272 393.87 6.52 393.422 3.704C393.166 2.168 392.27 1.656 390.478 1.656C389.326 1.656 388.494 1.848 387.406 1.912C385.55 2.104 384.014 3.128 383.95 4.856C383.246 9.4 382.862 14.008 382.35 18.616C382.222 21.176 382.222 23.608 382.158 26.232C382.094 29.624 381.966 33.208 382.094 36.6C381.902 39.224 381.838 41.72 382.03 44.216C382.35 48.248 382.926 52.152 383.438 56.12C383.758 58.68 384.206 61.176 384.526 63.672C384.654 64.696 385.166 65.656 386.19 65.784C387.982 66.04 389.774 66.424 391.374 66.296C394.574 66.04 394.702 65.72 395.214 62.968C395.214 62.584 395.214 62.2 395.214 61.88C395.47 58.36 395.726 54.968 395.918 51.32C396.046 47.864 396.302 44.408 396.558 40.568C400.27 40.248 404.366 39.928 408.27 39.544C408.526 41.912 409.102 44.024 409.038 46.072C409.038 49.976 409.806 53.624 411.086 57.464C411.726 59.192 413.582 60.344 415.566 60.28C417.102 60.28 418.766 59.96 420.366 59.64C421.71 59.512 422.478 58.872 422.542 57.464C422.542 55.608 422.99 53.624 423.054 51.768C423.246 51.064 423.31 50.168 423.31 49.528C423.118 45.496 422.67 41.528 422.414 37.496C422.35 33.016 422.542 28.536 422.478 24.056C422.414 19.96 422.286 15.8 421.966 11.64C421.838 10.424 421.454 8.952 421.006 7.8C420.75 7.224 419.982 6.52 419.534 6.52C417.038 6.328 414.606 6.328 412.302 6.392C411.214 6.392 410.638 6.904 410.51 7.8C410.19 9.72 409.742 11.384 409.486 13.176C409.23 14.456 409.614 15.928 409.422 17.208C408.718 20.6 408.142 24.056 408.654 27.768C408.846 29.24 408.718 30.84 408.782 32.632C404.366 33.272 400.526 33.848 396.366 34.296Z" fill="white"/>
</svg>
