<svg width="112" height="35" viewBox="0 0 112 35" fill="none" xmlns="http://www.w3.org/2000/svg">
<path d="M12.9561 6.36001C13.5321 6.61201 13.8201 6.72001 14.0721 7.18801C14.6841 8.268 15.7281 9.132 16.1241 10.284C16.2681 10.68 16.4481 11.004 16.6641 11.364C17.0961 12.3 17.8521 12.588 18.7521 12.516C19.3641 12.516 20.0121 12.408 20.5521 12.372C21.1641 12.336 21.7041 12.156 21.8121 11.4C21.9561 10.86 22.1361 10.14 21.9921 9.67201C21.5601 8.41201 21.3801 7.008 20.4081 5.964C20.1921 5.784 20.1201 5.496 20.0121 5.208C19.7601 4.812 19.5441 4.308 19.1121 4.092C17.9241 2.94 16.2681 1.644 14.5761 1.608C12.6681 1.608 10.6881 1.788 8.78013 1.896C8.45613 1.896 8.16813 2.112 7.95213 2.148C6.36813 2.4 5.18013 3.228 4.10013 4.20001C3.34413 4.848 2.19213 5.424 2.40813 6.756C2.40813 6.86401 2.22813 6.972 2.19213 7.044C1.40013 8.448 0.932126 9.88801 0.680125 11.4C0.320126 13.344 0.212126 15.432 0.0681259 17.484C-0.075874 19.5 0.0681257 21.552 0.464126 23.532C1.18413 27.132 2.40813 30.552 5.97213 32.388C5.97213 32.388 6.00813 32.424 6.04413 32.424C6.72813 33.18 7.62813 33.18 8.52813 33.108C9.82413 32.856 11.0841 32.712 12.4161 32.568C14.5041 32.352 16.1961 31.38 17.8161 30.192C18.5001 29.652 19.0401 28.932 19.5801 28.248C20.9481 26.736 21.2001 26.268 22.0281 24.396C23.1441 21.804 19.9401 20.436 18.5361 19.932C17.9601 19.716 17.4201 19.788 16.7001 20.688C15.9081 21.696 14.1081 25.656 13.3521 26.736C12.3441 28.104 11.4081 27.888 10.8681 26.124C10.0761 23.712 9.06813 21.192 9.53613 18.456C9.60813 18.312 9.50013 18.096 9.50013 17.88C9.53613 16.98 9.60813 16.08 9.71613 15.036C9.71613 14.676 9.78813 14.352 9.82413 13.992C10.0761 12.804 10.1121 11.616 10.4721 10.428C10.8681 8.91601 11.5521 7.58401 12.9561 6.36001Z" fill="white"/>
<path d="M32.6234 26.736C32.6234 25.944 32.6234 25.332 32.6594 24.684C32.6954 22.812 32.9474 20.904 32.9474 19.068C32.9834 16.512 32.9834 13.992 32.8754 11.436C32.8034 9.312 32.6234 7.18801 32.5154 5.02801C32.3714 4.05601 31.9034 3.408 30.9674 3.336C29.9954 3.264 28.8434 3.3 27.7994 3.336C27.2234 3.336 26.8274 3.588 26.7914 4.308C26.7914 4.848 26.4674 5.388 26.3234 5.928C25.9994 7.69201 25.7114 9.384 25.5674 11.076C25.4954 11.976 25.2074 12.876 25.2074 13.668C25.1354 16.044 24.8834 18.348 25.1714 20.688C25.2074 21.156 25.4954 21.588 25.4594 22.128C25.3514 24.036 25.8914 25.764 26.2514 27.6C26.4674 28.536 26.3234 29.184 25.7114 29.832C24.8114 30.84 24.8834 31.452 25.9634 32.172C27.9434 33.396 30.1034 33.936 32.2634 33C34.4594 31.992 36.7994 31.416 39.0314 30.696C39.5354 30.516 40.0034 30.228 40.4714 30.048C40.8674 29.724 41.1194 29.292 40.7954 28.824C40.6154 28.536 40.4354 28.176 40.1834 27.924C39.1394 26.988 37.9154 26.376 36.4394 26.412C35.5394 26.448 34.7114 26.628 33.8114 26.736C33.4514 26.736 33.0914 26.736 32.6234 26.736Z" fill="white"/>
<path d="M54.2552 28.248C54.4352 29.364 54.5072 30.48 54.7232 31.56C54.7952 32.172 54.7952 32.748 54.9752 33.36C55.3712 34.44 55.9832 34.872 57.1352 34.728C58.3592 34.584 59.5832 34.26 60.8072 33.756C61.6352 33.468 62.0672 32.748 62.3192 31.956C62.5712 31.02 62.6432 30.048 62.9312 29.148C63.3272 27.564 63.3272 25.944 63.3992 24.324C63.4352 22.92 63.2192 21.516 63.0392 20.112C62.9312 18.888 62.7512 17.7 62.4632 16.512C62.3192 15.576 62.0672 14.64 61.6352 13.884C60.8792 12.588 60.5912 11.076 59.8352 9.74401C59.1512 8.52001 58.5032 7.18801 57.8552 5.892C57.2432 4.488 56.0552 3.876 54.5072 4.236C54.2912 4.344 54.0392 4.308 53.7512 4.308C53.1032 4.344 52.3832 4.344 51.7352 4.452C50.7992 4.56 49.8992 4.812 49.5752 5.784C48.8552 7.87201 48.0272 9.816 47.6672 11.94C47.3072 14.316 46.2272 16.476 45.7592 18.852C45.4712 20.112 44.8232 21.408 44.6432 22.704C44.4992 24.324 43.3112 25.692 43.3832 27.348C42.6272 28.32 42.9872 29.652 42.5552 30.768C42.3752 30.948 42.4112 31.416 42.5552 31.74C42.6272 32.028 42.8432 32.28 43.1312 32.496C44.6072 33.252 46.9472 32.568 47.4512 30.948C47.9192 29.58 48.7472 29.148 50.0072 28.932C51.4112 28.752 52.7432 28.428 54.2552 28.248ZM49.6112 25.584C50.9432 22.488 52.2752 19.464 53.5712 16.44C53.6792 16.512 53.7512 16.584 53.7512 16.764C53.8952 18.24 54.0752 19.788 54.1472 21.372C54.2552 22.308 54.1472 23.28 54.2552 24.252C54.2912 24.612 54.1472 24.864 53.7512 24.972C52.5632 25.224 51.3032 25.476 50.0792 25.764C49.8992 25.8 49.7552 25.692 49.6112 25.584Z" fill="white"/>
<path d="M69.1893 4.344C68.7573 4.452 68.2173 4.488 67.6773 4.70401C67.0653 4.956 66.5973 5.388 66.5973 6.03601C66.5613 7.584 66.5613 9.20401 66.5613 10.716C66.5613 12.948 66.5613 15.18 66.5253 17.376C66.5253 19.032 66.4893 20.688 66.4533 22.272C66.3453 23.928 66.4173 25.512 66.4533 27.168C66.4893 28.428 66.0933 29.796 66.6693 31.02C67.1733 32.028 67.6773 32.856 68.7573 33.108C70.4493 33.54 72.1053 33.36 73.6533 32.604C75.0213 32.028 75.8853 30.12 75.8133 28.68C75.7053 26.916 75.4533 25.044 75.4893 23.244C75.4893 21.552 75.3453 19.968 75.1293 18.312C75.0573 16.98 74.8773 15.792 74.7333 14.604C74.6253 13.776 74.5893 13.02 74.5173 12.3C74.4453 11.76 74.2293 11.184 74.2293 10.644C74.1213 8.952 73.8333 7.332 73.2573 5.748C73.1493 5.136 72.6813 4.848 72.1053 4.74C71.2053 4.632 70.3053 4.488 69.1893 4.344Z" fill="white"/>
<path d="M85.7068 31.092C84.9148 25.08 84.0148 18.996 85.5268 12.948C85.7428 13.164 85.9228 13.488 85.9588 13.776C86.5708 16.26 87.1108 18.744 87.8668 21.228C88.3348 22.524 88.7308 23.028 90.3508 22.956C91.5748 22.956 92.7628 22.704 93.9148 22.488C94.5628 22.344 95.0308 21.876 95.1388 21.12C95.3188 19.752 95.5348 18.492 96.0748 17.16C96.9748 14.928 97.7668 12.66 99.2428 10.716C99.5308 10.428 99.6388 9.96 99.9268 9.6C104.679 4.164 103.383 9.27601 102.843 13.236C102.267 17.232 100.827 21.048 100.287 25.044C99.9988 26.664 99.7828 28.32 99.5668 29.976C99.4588 31.2 99.9988 32.1 101.187 32.208C101.907 32.28 103.851 32.244 104.607 32.136C105.183 31.992 105.651 31.596 105.831 30.948C106.299 29.724 106.875 28.428 107.235 27.204C107.415 26.7 107.523 26.196 107.703 25.728C108.135 24.18 108.675 22.74 109.035 21.264C109.467 19.5 109.611 17.736 110.043 16.044C110.871 12.624 111.375 9.168 111.231 5.604C111.195 4.74 111.087 3.804 110.799 2.976C110.331 1.896 109.611 0.888005 108.207 0.924004C107.883 0.924004 106.587 0.816004 106.299 0.744005C103.779 0.312004 101.475 0.996003 99.6028 2.616C98.7388 3.408 97.8748 4.128 97.0108 4.956C96.7948 5.064 96.6868 5.28 96.6148 5.38801C95.7508 6.432 94.9588 7.51201 94.1308 8.55601C93.8068 8.952 93.2308 9.276 93.1948 9.74401C93.0868 10.428 92.6908 10.644 92.1508 11.04C91.7908 10.212 91.5388 9.492 91.0348 8.88C89.9548 7.332 88.4428 6.39601 86.5708 6.21601C85.3108 6.03601 84.0868 6.21601 82.9708 6.252C81.9268 6.36001 81.2068 6.972 80.6308 7.69201C79.5508 9.312 79.1548 11.184 78.5428 12.948C78.1468 14.244 78.0388 15.648 78.0028 16.98C78.0028 18.996 78.0028 20.94 78.2188 22.848C78.4348 24.828 78.8308 26.736 79.2268 28.68C79.4428 29.652 79.8028 30.588 80.0908 31.596C80.2348 32.388 80.9548 32.604 81.6388 32.532C83.0068 32.388 84.4828 32.46 85.7068 31.092Z" fill="white"/>
</svg>
